<svg width="290" height="287" viewBox="0 0 290 287" fill="none" xmlns="http://www.w3.org/2000/svg">
<ellipse cx="145" cy="143.5" rx="145" ry="143.5" fill="#3D3741"/>
<g filter="url(#filter0_b_20_15)">
<path d="M259 144C259 204.199 213 253 145 253C82.0395 253 31 204.199 31 144C31 83.801 82.0395 35 145 35C207.96 35 259 83.801 259 144Z" fill="url(#paint0_linear_20_15)"/>
</g>
<path d="M144 56C121.354 56 103 73.2348 103 94.5C103 115.765 121.354 133 144 133C166.646 133 185 115.765 185 94.5C185 73.2348 166.646 56 144 56ZM176.384 87.2812H172.107C170.75 87.2812 169.625 88.334 169.625 89.6123V90.6462C169.625 91.5298 169.101 92.3381 168.267 92.7337L165.781 93.8984C164.986 94.2744 164.036 94.218 163.299 93.748L160.39 91.9253C159.75 91.5305 158.955 91.4177 158.219 91.6621L157.789 91.793C156.238 92.2629 155.618 94.0112 156.509 95.2896L158.643 98.2793C159.087 98.9215 159.871 99.3125 160.704 99.3125H162.023C163.4 99.3125 164.505 100.365 164.505 101.644V103.355C164.505 103.863 164.331 104.351 164.001 104.746L161.014 108.506C160.782 108.788 160.626 109.126 160.549 109.465L159.87 112.906C159.773 113.394 159.502 113.845 159.094 114.203C157.582 115.5 156.244 116.967 155.099 118.582L153.004 121.515C152.758 121.866 152.379 122.08 152.041 122.34C150.683 122.687 149.293 122.953 147.867 123.122C146.792 122.772 145.873 122.062 145.343 121.063C144.47 119.427 144.005 117.604 144.005 115.762V111.269C144 109.99 142.895 108.938 141.518 108.938H137.37C135.062 108.938 132.831 108.073 131.183 106.531C129.554 104.997 128.625 102.907 128.625 100.726V98.6057C128.625 96.031 129.924 93.5856 132.136 92.0441L136.538 88.9235C138.058 87.8678 139.9 87.2812 141.79 87.2812H141.926C143.283 87.2812 144.64 87.582 145.843 88.146L148.209 89.2551C148.789 89.5371 149.477 89.5822 150.102 89.3867L157.685 87.0181C158.694 86.6985 159.393 85.7961 159.393 84.7998C159.393 83.5027 158.268 82.4688 156.91 82.4688H155.281C154.622 82.4688 154.001 82.2244 153.536 81.792L152.43 80.7393C151.96 80.3031 151.319 80.0625 150.663 80.0625H136.232C134.875 80.0625 133.75 79.0098 133.75 77.7314V77.0697C133.75 75.9982 134.526 75.0575 135.632 74.7958L137.959 74.2695C138.56 74.1191 139.084 73.7807 139.413 73.2919L140.713 71.4692C141.165 70.833 141.95 70.4375 142.767 70.4375H146.646C148.023 70.4375 149.128 69.3848 149.128 68.1064V63.6278C162.514 65.5844 173.277 75.0395 176.384 87.2812Z" fill="#3D3741"/>
<path d="M77.0625 142.844C78.1042 142.906 78.9792 142.958 79.6875 143C80.4167 143.021 81.0208 143.042 81.5 143.062C82.0417 143.083 82.5 143.083 82.875 143.062C83.25 143.042 83.7604 142.99 84.4062 142.906C84.9479 142.844 85.6667 142.75 86.5625 142.625C87.4792 142.479 88.6146 142.292 89.9688 142.062C89.4896 142.542 89.1146 142.979 88.8438 143.375C88.5938 143.75 88.3958 144.073 88.25 144.344C88.0833 144.677 87.9688 144.958 87.9062 145.188C87.8646 145.396 87.9062 145.917 88.0312 146.75C88.1562 147.583 88.3333 148.573 88.5625 149.719C88.7917 150.844 89.0417 152.052 89.3125 153.344C89.5833 154.615 89.8542 155.812 90.125 156.938C90.3958 158.042 90.6354 158.99 90.8438 159.781C91.0729 160.552 91.2396 161.01 91.3438 161.156C91.6562 161.594 91.8542 161.885 91.9375 162.031C92.0208 162.156 92.1667 162.271 92.375 162.375C92.4583 162.417 92.5938 162.479 92.7812 162.562C92.9479 162.646 93.1667 162.75 93.4375 162.875C93.7292 163 94.0938 163.146 94.5312 163.312C93.7188 163.354 93.0208 163.385 92.4375 163.406C91.8542 163.406 91.375 163.417 91 163.438C90.5625 163.458 90.1875 163.479 89.875 163.5C89.5625 163.5 89.1875 163.521 88.75 163.562C88.375 163.604 87.8854 163.646 87.2812 163.688C86.6979 163.729 86.0104 163.771 85.2188 163.812C85.6354 163.521 85.9688 163.26 86.2188 163.031C86.4896 162.781 86.6979 162.573 86.8438 162.406C87.0104 162.198 87.125 162.01 87.1875 161.844C87.2292 161.656 87.2604 161.375 87.2812 161C87.3021 160.667 87.3021 160.229 87.2812 159.688C87.2604 159.125 87.2083 158.396 87.125 157.5L78.9062 158.344C78.6979 158.698 78.5417 159.01 78.4375 159.281C78.3333 159.531 78.2604 159.75 78.2188 159.938C78.1562 160.167 78.1354 160.354 78.1562 160.5C78.1979 160.667 78.2708 160.865 78.375 161.094C78.4792 161.302 78.625 161.552 78.8125 161.844C79.0208 162.115 79.3229 162.438 79.7188 162.812C79.1979 162.792 78.6667 162.781 78.125 162.781C77.5833 162.781 77.0833 162.792 76.625 162.812C76.0833 162.833 75.5521 162.854 75.0312 162.875C74.5104 162.896 73.9167 162.927 73.25 162.969C72.6875 163.01 72.0312 163.062 71.2812 163.125C70.5104 163.167 69.6875 163.229 68.8125 163.312C69.3542 163.062 69.8125 162.812 70.1875 162.562C70.5625 162.292 70.875 162.042 71.125 161.812C71.4167 161.562 71.6667 161.323 71.875 161.094C72.0208 160.885 72.3125 160.406 72.75 159.656C73.1875 158.885 73.6771 157.979 74.2188 156.938C74.7812 155.896 75.3646 154.781 75.9688 153.594C76.5938 152.406 77.1562 151.292 77.6562 150.25C78.1562 149.188 78.5625 148.271 78.875 147.5C79.1875 146.729 79.3438 146.229 79.3438 146C79.3021 145.729 79.1979 145.427 79.0312 145.094C78.8854 144.802 78.6562 144.469 78.3438 144.094C78.0521 143.719 77.625 143.302 77.0625 142.844ZM86.75 155.188C86.625 154.458 86.5104 153.833 86.4062 153.312C86.3021 152.771 86.2188 152.323 86.1562 151.969C86.0729 151.552 86.0104 151.188 85.9688 150.875C85.9062 150.583 85.8333 150.208 85.75 149.75C85.6667 149.354 85.5625 148.865 85.4375 148.281C85.3333 147.677 85.1979 146.958 85.0312 146.125C83.8438 148.5 82.9167 150.344 82.25 151.656C81.6042 152.948 81.1354 153.896 80.8438 154.5C80.4896 155.208 80.2917 155.625 80.25 155.75L86.75 155.188ZM102.375 140.906C103.104 140.906 103.76 141.031 104.344 141.281C104.948 141.51 105.5 141.771 106 142.062C106.521 142.354 107.01 142.625 107.469 142.875C107.927 143.104 108.396 143.219 108.875 143.219C109.25 143.198 109.677 143.146 110.156 143.062C110.573 142.979 111.052 142.854 111.594 142.688C112.156 142.5 112.781 142.229 113.469 141.875C112.781 142.542 112.219 143.104 111.781 143.562C111.365 144 111.042 144.365 110.812 144.656C110.542 144.99 110.344 145.25 110.219 145.438C110.094 145.667 109.906 146.01 109.656 146.469C109.427 146.885 109.115 147.448 108.719 148.156C108.323 148.844 107.823 149.75 107.219 150.875C107.219 149.438 107.073 148.323 106.781 147.531C106.51 146.74 106.208 146.135 105.875 145.719C105.479 145.24 105.031 144.938 104.531 144.812C104.073 144.75 103.615 144.833 103.156 145.062C102.698 145.271 102.24 145.583 101.781 146C101.344 146.417 100.917 146.917 100.5 147.5C100.104 148.062 99.7396 148.656 99.4062 149.281C99.0938 149.906 98.8333 150.542 98.625 151.188C98.4167 151.812 98.2812 152.396 98.2188 152.938C98.1562 153.417 98.1458 153.979 98.1875 154.625C98.2292 155.25 98.3229 155.896 98.4688 156.562C98.6146 157.208 98.8021 157.844 99.0312 158.469C99.2604 159.094 99.5417 159.656 99.875 160.156C100.229 160.635 100.625 161.031 101.062 161.344C101.5 161.635 102 161.771 102.562 161.75C103.188 161.708 103.802 161.521 104.406 161.188C104.927 160.917 105.458 160.5 106 159.938C106.542 159.354 107.01 158.531 107.406 157.469L112.031 158.312C110.698 159.938 109.396 161.156 108.125 161.969C106.875 162.781 105.75 163.354 104.75 163.688C103.583 164.062 102.479 164.24 101.438 164.219C100.125 164.073 98.8958 163.677 97.75 163.031C96.6042 162.385 95.6146 161.604 94.7812 160.688C93.9688 159.75 93.3333 158.729 92.875 157.625C92.4167 156.521 92.2188 155.438 92.2812 154.375C92.3229 153.667 92.4688 152.844 92.7188 151.906C92.9688 150.948 93.3021 149.969 93.7188 148.969C94.1562 147.969 94.6771 146.99 95.2812 146.031C95.8854 145.073 96.5521 144.219 97.2812 143.469C98.0104 142.698 98.8021 142.083 99.6562 141.625C100.531 141.146 101.438 140.906 102.375 140.906ZM111.25 141.188C112.646 141.354 113.854 141.479 114.875 141.562C115.896 141.625 116.74 141.677 117.406 141.719C118.177 141.76 118.823 141.771 119.344 141.75C119.885 141.729 120.625 141.677 121.562 141.594C122.354 141.531 123.396 141.448 124.688 141.344C125.979 141.219 127.594 141.052 129.531 140.844C129.552 141.323 129.562 141.792 129.562 142.25C129.583 142.688 129.604 143.073 129.625 143.406C129.646 143.802 129.656 144.167 129.656 144.5C129.656 144.854 129.635 145.302 129.594 145.844C129.552 146.302 129.479 146.885 129.375 147.594C129.292 148.281 129.156 149.104 128.969 150.062C128.677 148.938 128.396 148.031 128.125 147.344C127.854 146.635 127.604 146.073 127.375 145.656C127.125 145.177 126.875 144.812 126.625 144.562C126.354 144.375 126.031 144.219 125.656 144.094C125.323 143.99 124.896 143.906 124.375 143.844C123.875 143.781 123.281 143.792 122.594 143.875C122.49 146.625 122.417 148.854 122.375 150.562C122.333 152.271 122.302 153.604 122.281 154.562C122.26 155.708 122.25 156.531 122.25 157.031C122.271 157.74 122.385 158.438 122.594 159.125C122.76 159.708 123.031 160.312 123.406 160.938C123.781 161.562 124.323 162.115 125.031 162.594H121.219C120.865 162.594 120.427 162.615 119.906 162.656C119.469 162.698 118.906 162.74 118.219 162.781C117.552 162.823 116.771 162.896 115.875 163C116.188 162.458 116.438 161.969 116.625 161.531C116.812 161.094 116.958 160.719 117.062 160.406C117.188 160.031 117.281 159.698 117.344 159.406C117.365 158.99 117.417 158.146 117.5 156.875C117.521 156.354 117.542 155.708 117.562 154.938C117.604 154.167 117.646 153.25 117.688 152.188C117.75 151.125 117.802 149.906 117.844 148.531C117.906 147.135 117.969 145.562 118.031 143.812C117.656 143.708 117.302 143.719 116.969 143.844C116.635 143.948 116.344 144.083 116.094 144.25C115.802 144.458 115.521 144.708 115.25 145C114.979 145.354 114.677 145.812 114.344 146.375C114.052 146.854 113.719 147.49 113.344 148.281C112.969 149.052 112.542 150.01 112.062 151.156C111.958 149.948 111.885 148.958 111.844 148.188C111.802 147.396 111.771 146.781 111.75 146.344C111.729 145.823 111.719 145.438 111.719 145.188C111.719 144.958 111.698 144.656 111.656 144.281C111.615 143.969 111.562 143.562 111.5 143.062C111.438 142.542 111.354 141.917 111.25 141.188ZM128.719 142.031C129.344 142.156 129.875 142.25 130.312 142.312C130.75 142.375 131.115 142.427 131.406 142.469C131.74 142.51 132.021 142.531 132.25 142.531C132.479 142.531 132.792 142.521 133.188 142.5C133.542 142.479 133.99 142.469 134.531 142.469C135.073 142.448 135.76 142.417 136.594 142.375C136.115 142.708 135.729 142.99 135.438 143.219C135.146 143.448 134.927 143.646 134.781 143.812C134.594 144 134.479 144.156 134.438 144.281C134.396 144.365 134.354 144.677 134.312 145.219C134.271 145.74 134.229 146.406 134.188 147.219C134.167 148.01 134.167 148.906 134.188 149.906C134.208 150.885 134.26 151.885 134.344 152.906C134.448 153.927 134.594 154.917 134.781 155.875C134.969 156.812 135.219 157.635 135.531 158.344C135.865 159.052 136.26 159.604 136.719 160C137.198 160.396 137.771 160.542 138.438 160.438C139.312 160.312 140.021 159.885 140.562 159.156C141.104 158.427 141.51 157.542 141.781 156.5C142.073 155.458 142.25 154.344 142.312 153.156C142.396 151.948 142.406 150.823 142.344 149.781C142.302 148.719 142.219 147.802 142.094 147.031C141.969 146.26 141.854 145.781 141.75 145.594C141.625 145.385 141.458 145.146 141.25 144.875C141.083 144.646 140.865 144.385 140.594 144.094C140.323 143.781 140.01 143.448 139.656 143.094C140.302 143.115 140.885 143.135 141.406 143.156C141.927 143.156 142.365 143.167 142.719 143.188C143.135 143.208 143.51 143.229 143.844 143.25C144.177 143.271 144.594 143.302 145.094 143.344C145.51 143.385 146.042 143.427 146.688 143.469C147.354 143.51 148.146 143.573 149.062 143.656C148.708 143.74 148.417 143.854 148.188 144C147.979 144.146 147.812 144.302 147.688 144.469C147.542 144.656 147.438 144.844 147.375 145.031C147.312 145.198 147.26 145.698 147.219 146.531C147.198 147.344 147.156 148.333 147.094 149.5C147.052 150.646 146.979 151.896 146.875 153.25C146.771 154.583 146.604 155.854 146.375 157.062C146.167 158.271 145.885 159.344 145.531 160.281C145.198 161.219 144.76 161.865 144.219 162.219C143.427 162.74 142.594 163.115 141.719 163.344C140.844 163.552 139.958 163.667 139.062 163.688C138.167 163.688 137.281 163.615 136.406 163.469C135.552 163.302 134.729 163.104 133.938 162.875C133.125 162.625 132.448 162.062 131.906 161.188C131.385 160.312 130.969 159.281 130.656 158.094C130.365 156.885 130.146 155.594 130 154.219C129.875 152.823 129.792 151.479 129.75 150.188C129.729 148.896 129.729 147.729 129.75 146.688C129.792 145.625 129.823 144.823 129.844 144.281C129.844 144.01 129.802 143.75 129.719 143.5C129.656 143.271 129.542 143.031 129.375 142.781C129.229 142.51 129.01 142.26 128.719 142.031ZM153 142.844C154.042 142.906 154.917 142.958 155.625 143C156.354 143.021 156.958 143.042 157.438 143.062C157.979 143.083 158.438 143.083 158.812 143.062C159.188 143.042 159.698 142.99 160.344 142.906C160.885 142.844 161.604 142.75 162.5 142.625C163.417 142.479 164.552 142.292 165.906 142.062C165.427 142.542 165.052 142.979 164.781 143.375C164.531 143.75 164.333 144.073 164.188 144.344C164.021 144.677 163.906 144.958 163.844 145.188C163.802 145.396 163.844 145.917 163.969 146.75C164.094 147.583 164.271 148.573 164.5 149.719C164.729 150.844 164.979 152.052 165.25 153.344C165.521 154.615 165.792 155.812 166.062 156.938C166.333 158.042 166.573 158.99 166.781 159.781C167.01 160.552 167.177 161.01 167.281 161.156C167.594 161.594 167.792 161.885 167.875 162.031C167.958 162.156 168.104 162.271 168.312 162.375C168.396 162.417 168.531 162.479 168.719 162.562C168.885 162.646 169.104 162.75 169.375 162.875C169.667 163 170.031 163.146 170.469 163.312C169.656 163.354 168.958 163.385 168.375 163.406C167.792 163.406 167.312 163.417 166.938 163.438C166.5 163.458 166.125 163.479 165.812 163.5C165.5 163.5 165.125 163.521 164.688 163.562C164.312 163.604 163.823 163.646 163.219 163.688C162.635 163.729 161.948 163.771 161.156 163.812C161.573 163.521 161.906 163.26 162.156 163.031C162.427 162.781 162.635 162.573 162.781 162.406C162.948 162.198 163.062 162.01 163.125 161.844C163.167 161.656 163.198 161.375 163.219 161C163.24 160.667 163.24 160.229 163.219 159.688C163.198 159.125 163.146 158.396 163.062 157.5L154.844 158.344C154.635 158.698 154.479 159.01 154.375 159.281C154.271 159.531 154.198 159.75 154.156 159.938C154.094 160.167 154.073 160.354 154.094 160.5C154.135 160.667 154.208 160.865 154.312 161.094C154.417 161.302 154.562 161.552 154.75 161.844C154.958 162.115 155.26 162.438 155.656 162.812C155.135 162.792 154.604 162.781 154.062 162.781C153.521 162.781 153.021 162.792 152.562 162.812C152.021 162.833 151.49 162.854 150.969 162.875C150.448 162.896 149.854 162.927 149.188 162.969C148.625 163.01 147.969 163.062 147.219 163.125C146.448 163.167 145.625 163.229 144.75 163.312C145.292 163.062 145.75 162.812 146.125 162.562C146.5 162.292 146.812 162.042 147.062 161.812C147.354 161.562 147.604 161.323 147.812 161.094C147.958 160.885 148.25 160.406 148.688 159.656C149.125 158.885 149.615 157.979 150.156 156.938C150.719 155.896 151.302 154.781 151.906 153.594C152.531 152.406 153.094 151.292 153.594 150.25C154.094 149.188 154.5 148.271 154.812 147.5C155.125 146.729 155.281 146.229 155.281 146C155.24 145.729 155.135 145.427 154.969 145.094C154.823 144.802 154.594 144.469 154.281 144.094C153.99 143.719 153.562 143.302 153 142.844ZM162.688 155.188C162.562 154.458 162.448 153.833 162.344 153.312C162.24 152.771 162.156 152.323 162.094 151.969C162.01 151.552 161.948 151.188 161.906 150.875C161.844 150.583 161.771 150.208 161.688 149.75C161.604 149.354 161.5 148.865 161.375 148.281C161.271 147.677 161.135 146.958 160.969 146.125C159.781 148.5 158.854 150.344 158.188 151.656C157.542 152.948 157.073 153.896 156.781 154.5C156.427 155.208 156.229 155.625 156.188 155.75L162.688 155.188ZM169.469 141.344C170.073 141.448 170.604 141.521 171.062 141.562C171.542 141.604 171.938 141.635 172.25 141.656C172.625 141.677 172.948 141.688 173.219 141.688C173.49 141.688 173.875 141.667 174.375 141.625C174.792 141.583 175.333 141.531 176 141.469C176.688 141.406 177.531 141.302 178.531 141.156C178.24 141.24 177.969 141.479 177.719 141.875C177.49 142.25 177.281 142.656 177.094 143.094C176.865 143.615 176.667 144.188 176.5 144.812C176.354 145.375 176.167 146.146 175.938 147.125C175.729 148.104 175.521 149.167 175.312 150.312C175.125 151.458 174.979 152.625 174.875 153.812C174.771 154.979 174.75 156.052 174.812 157.031C174.896 158.01 175.094 158.823 175.406 159.469C175.719 160.094 176.198 160.427 176.844 160.469C177.823 160.552 178.635 160.562 179.281 160.5C179.948 160.417 180.49 160.302 180.906 160.156C181.323 160.01 181.646 159.844 181.875 159.656C182.104 159.448 182.281 159.25 182.406 159.062C182.74 158.583 183.083 157.969 183.438 157.219C183.792 156.469 184.104 155.75 184.375 155.062C184.667 154.375 184.906 153.792 185.094 153.312C185.281 152.833 185.375 152.604 185.375 152.625C185.375 152.667 185.365 152.906 185.344 153.344C185.344 153.76 185.333 154.271 185.312 154.875C185.312 155.458 185.302 156.073 185.281 156.719C185.281 157.365 185.271 157.917 185.25 158.375C185.229 158.75 185.208 159.167 185.188 159.625C185.167 160.021 185.146 160.49 185.125 161.031C185.125 161.573 185.104 162.167 185.062 162.812C184.188 162.75 183.354 162.708 182.562 162.688C181.771 162.667 181.073 162.656 180.469 162.656C179.76 162.656 179.104 162.667 178.5 162.688C177.854 162.708 177.104 162.74 176.25 162.781C175.521 162.823 174.615 162.875 173.531 162.938C172.448 162.979 171.198 163.042 169.781 163.125C169.948 162.833 170.083 162.562 170.188 162.312C170.312 162.062 170.406 161.854 170.469 161.688C170.552 161.479 170.604 161.302 170.625 161.156C170.75 160.49 170.854 159.646 170.938 158.625C171.021 157.583 171.083 156.479 171.125 155.312C171.188 154.146 171.219 152.958 171.219 151.75C171.24 150.521 171.24 149.385 171.219 148.344C171.198 147.302 171.156 146.396 171.094 145.625C171.052 144.854 170.99 144.323 170.906 144.031C170.802 143.698 170.677 143.365 170.531 143.031C170.406 142.74 170.25 142.448 170.062 142.156C169.896 141.844 169.698 141.573 169.469 141.344ZM186.969 141.344C187.573 141.448 188.104 141.521 188.562 141.562C189.042 141.604 189.438 141.635 189.75 141.656C190.125 141.677 190.448 141.688 190.719 141.688C190.99 141.688 191.375 141.667 191.875 141.625C192.292 141.583 192.833 141.531 193.5 141.469C194.188 141.406 195.031 141.302 196.031 141.156C195.74 141.24 195.469 141.479 195.219 141.875C194.99 142.25 194.781 142.656 194.594 143.094C194.365 143.615 194.167 144.188 194 144.812C193.854 145.375 193.667 146.146 193.438 147.125C193.229 148.104 193.021 149.167 192.812 150.312C192.625 151.458 192.479 152.625 192.375 153.812C192.271 154.979 192.25 156.052 192.312 157.031C192.396 158.01 192.594 158.823 192.906 159.469C193.219 160.094 193.698 160.427 194.344 160.469C195.323 160.552 196.135 160.562 196.781 160.5C197.448 160.417 197.99 160.302 198.406 160.156C198.823 160.01 199.146 159.844 199.375 159.656C199.604 159.448 199.781 159.25 199.906 159.062C200.24 158.583 200.583 157.969 200.938 157.219C201.292 156.469 201.604 155.75 201.875 155.062C202.167 154.375 202.406 153.792 202.594 153.312C202.781 152.833 202.875 152.604 202.875 152.625C202.875 152.667 202.865 152.906 202.844 153.344C202.844 153.76 202.833 154.271 202.812 154.875C202.812 155.458 202.802 156.073 202.781 156.719C202.781 157.365 202.771 157.917 202.75 158.375C202.729 158.75 202.708 159.167 202.688 159.625C202.667 160.021 202.646 160.49 202.625 161.031C202.625 161.573 202.604 162.167 202.562 162.812C201.688 162.75 200.854 162.708 200.062 162.688C199.271 162.667 198.573 162.656 197.969 162.656C197.26 162.656 196.604 162.667 196 162.688C195.354 162.708 194.604 162.74 193.75 162.781C193.021 162.823 192.115 162.875 191.031 162.938C189.948 162.979 188.698 163.042 187.281 163.125C187.448 162.833 187.583 162.562 187.688 162.312C187.812 162.062 187.906 161.854 187.969 161.688C188.052 161.479 188.104 161.302 188.125 161.156C188.25 160.49 188.354 159.646 188.438 158.625C188.521 157.583 188.583 156.479 188.625 155.312C188.688 154.146 188.719 152.958 188.719 151.75C188.74 150.521 188.74 149.385 188.719 148.344C188.698 147.302 188.656 146.396 188.594 145.625C188.552 144.854 188.49 144.323 188.406 144.031C188.302 143.698 188.177 143.365 188.031 143.031C187.906 142.74 187.75 142.448 187.562 142.156C187.396 141.844 187.198 141.573 186.969 141.344ZM197.438 141.812C198.333 141.896 199.125 141.958 199.812 142C200.5 142.042 201.073 142.083 201.531 142.125C202.073 142.167 202.531 142.198 202.906 142.219C203.281 142.24 203.74 142.25 204.281 142.25C204.74 142.271 205.312 142.281 206 142.281C206.688 142.281 207.5 142.281 208.438 142.281C207.833 142.573 207.365 142.844 207.031 143.094C206.719 143.344 206.479 143.562 206.312 143.75C206.104 143.979 205.979 144.188 205.938 144.375C205.917 144.542 205.958 144.823 206.062 145.219C206.167 145.615 206.312 146.062 206.5 146.562C206.688 147.042 206.917 147.552 207.188 148.094C207.458 148.635 207.74 149.125 208.031 149.562C208.344 149.979 208.656 150.323 208.969 150.594C209.281 150.865 209.583 150.99 209.875 150.969C210.167 150.948 210.521 150.812 210.938 150.562C211.354 150.292 211.781 149.958 212.219 149.562C212.677 149.167 213.125 148.74 213.562 148.281C214 147.823 214.385 147.375 214.719 146.938C215.073 146.5 215.354 146.104 215.562 145.75C215.792 145.375 215.906 145.104 215.906 144.938C215.885 144.729 215.802 144.49 215.656 144.219C215.531 143.99 215.323 143.719 215.031 143.406C214.74 143.073 214.333 142.698 213.812 142.281C215.521 142.344 216.771 142.375 217.562 142.375H218.719H220.031C220.51 142.375 221.146 142.375 221.938 142.375C222.729 142.354 223.719 142.323 224.906 142.281C224.094 142.823 223.385 143.312 222.781 143.75C222.198 144.167 221.698 144.521 221.281 144.812C220.802 145.167 220.406 145.479 220.094 145.75C219.74 146.042 219.25 146.5 218.625 147.125C218.083 147.667 217.365 148.396 216.469 149.312C215.573 150.208 214.448 151.375 213.094 152.812C212.906 154.333 212.781 155.562 212.719 156.5C212.677 157.438 212.656 158.177 212.656 158.719C212.656 159.344 212.698 159.812 212.781 160.125C212.885 160.375 213.062 160.667 213.312 161C213.521 161.292 213.812 161.635 214.188 162.031C214.583 162.427 215.104 162.865 215.75 163.344C215.062 163.177 214.417 163.052 213.812 162.969C213.229 162.885 212.708 162.823 212.25 162.781C211.708 162.719 211.219 162.688 210.781 162.688C210.323 162.688 209.781 162.708 209.156 162.75C208.615 162.792 207.969 162.844 207.219 162.906C206.469 162.969 205.594 163.062 204.594 163.188C205.115 162.833 205.542 162.479 205.875 162.125C206.208 161.771 206.469 161.448 206.656 161.156C206.885 160.823 207.052 160.51 207.156 160.219C207.24 159.885 207.302 159.406 207.344 158.781C207.385 158.24 207.385 157.521 207.344 156.625C207.323 155.729 207.26 154.594 207.156 153.219C205.906 151.219 204.885 149.646 204.094 148.5C203.302 147.333 202.688 146.448 202.25 145.844C201.729 145.156 201.354 144.698 201.125 144.469C200.917 144.302 200.635 144.094 200.281 143.844C199.99 143.615 199.615 143.344 199.156 143.031C198.677 142.698 198.104 142.292 197.438 141.812Z" fill="#3D3741"/>
<path d="M59.56 192L56.28 181.08L53.18 192H51.44L48.66 180.08C48.5933 179.773 48.54 179.56 48.5 179.44C48.46 179.307 48.4 179.22 48.32 179.18C48.2533 179.14 48.1467 179.113 48 179.1L46.9 178.96V178.4H52.44V178.96L51.34 179.1C51.1267 179.127 51.0133 179.18 51 179.26C50.9867 179.34 51.0267 179.613 51.12 180.08L53.2 189.4L56.26 178.4H57.92L61.18 189.2L63.3 180.08C63.4067 179.613 63.4467 179.34 63.42 179.26C63.3933 179.18 63.28 179.127 63.08 179.1L61.98 178.96V178.4H65.86V178.96L64.76 179.1C64.6133 179.113 64.5067 179.14 64.44 179.18C64.3733 179.22 64.3133 179.307 64.26 179.44C64.22 179.56 64.1667 179.773 64.1 180.08L61.32 192H59.56ZM77.5389 184.56V185.82C77.5389 187.873 77.0789 189.453 76.1589 190.56C75.2522 191.653 73.9056 192.2 72.1189 192.2C70.3322 192.2 68.9789 191.653 68.0589 190.56C67.1522 189.453 66.6989 187.873 66.6989 185.82V184.56C66.6989 182.507 67.1522 180.933 68.0589 179.84C68.9789 178.747 70.3322 178.2 72.1189 178.2C73.9056 178.2 75.2522 178.747 76.1589 179.84C77.0789 180.933 77.5389 182.507 77.5389 184.56ZM74.9789 183.56C74.9789 182.387 74.8789 181.467 74.6789 180.8C74.4789 180.12 74.1656 179.633 73.7389 179.34C73.3256 179.047 72.7856 178.9 72.1189 178.9C71.4656 178.9 70.9256 179.047 70.4989 179.34C70.0722 179.633 69.7589 180.12 69.5589 180.8C69.3589 181.467 69.2589 182.387 69.2589 183.56V186.82C69.2589 187.98 69.3589 188.9 69.5589 189.58C69.7589 190.26 70.0722 190.753 70.4989 191.06C70.9256 191.353 71.4656 191.5 72.1189 191.5C72.7856 191.5 73.3256 191.353 73.7389 191.06C74.1656 190.753 74.4789 190.26 74.6789 189.58C74.8789 188.9 74.9789 187.98 74.9789 186.82V183.56ZM79.7155 178.96V178.4H85.7555C87.1555 178.4 88.2355 178.713 88.9955 179.34C89.7555 179.967 90.1355 180.807 90.1355 181.86V182.32C90.1355 183.12 89.9155 183.8 89.4755 184.36C89.0355 184.92 88.4021 185.32 87.5755 185.56L90.0755 190.32C90.2355 190.613 90.3555 190.827 90.4355 190.96C90.5155 191.093 90.5888 191.18 90.6555 191.22C90.7355 191.247 90.8421 191.273 90.9755 191.3L91.8755 191.44V192H88.1355L85.1155 185.8H83.6555V190.32C83.6555 190.773 83.6755 191.047 83.7155 191.14C83.7555 191.22 83.8821 191.273 84.0955 191.3L85.1955 191.44V192H79.7155V191.44L80.8155 191.3C81.0288 191.273 81.1555 191.22 81.1955 191.14C81.2355 191.047 81.2555 190.773 81.2555 190.32V180.08C81.2555 179.627 81.2355 179.36 81.1955 179.28C81.1555 179.187 81.0288 179.127 80.8155 179.1L79.7155 178.96ZM85.7555 179.1H83.6555V185.1H85.7555C86.3421 185.1 86.7888 184.92 87.0955 184.56C87.4155 184.187 87.5755 183.507 87.5755 182.52V181.66C87.5755 180.673 87.4155 180 87.0955 179.64C86.7888 179.28 86.3421 179.1 85.7555 179.1ZM101.683 188.56H102.243V192H92.7428V191.44L93.8428 191.3C94.0561 191.273 94.1828 191.22 94.2228 191.14C94.2628 191.047 94.2828 190.773 94.2828 190.32V180.08C94.2828 179.627 94.2628 179.36 94.2228 179.28C94.1828 179.187 94.0561 179.127 93.8428 179.1L92.7428 178.96V178.4H98.2228V178.96L97.1228 179.1C96.9095 179.127 96.7828 179.187 96.7428 179.28C96.7028 179.36 96.6828 179.627 96.6828 180.08V191.3H99.9628C100.283 191.3 100.509 191.293 100.643 191.28C100.776 191.253 100.863 191.207 100.903 191.14C100.956 191.06 101.003 190.94 101.043 190.78L101.683 188.56ZM103.387 178.96V178.4H109.287C110.994 178.4 112.301 178.9 113.207 179.9C114.127 180.9 114.587 182.453 114.587 184.56V185.82C114.587 187.927 114.127 189.487 113.207 190.5C112.301 191.5 110.994 192 109.287 192H103.387V191.44L104.487 191.3C104.701 191.273 104.827 191.22 104.867 191.14C104.907 191.047 104.927 190.773 104.927 190.32V180.08C104.927 179.627 104.907 179.36 104.867 179.28C104.827 179.187 104.701 179.127 104.487 179.1L103.387 178.96ZM109.187 179.1H107.327V191.3H109.187C109.867 191.3 110.414 191.187 110.827 190.96C111.241 190.72 111.541 190.28 111.727 189.64C111.927 188.987 112.027 188.047 112.027 186.82V183.56C112.027 182.333 111.927 181.4 111.727 180.76C111.541 180.12 111.241 179.687 110.827 179.46C110.414 179.22 109.867 179.1 109.187 179.1ZM127.599 186.4V185.84H133.279V186.4L132.179 186.54C131.966 186.567 131.839 186.627 131.799 186.72C131.759 186.8 131.739 187.067 131.739 187.52V192H131.199C130.839 191.627 130.439 191.313 129.999 191.06C129.639 191.38 129.212 191.653 128.719 191.88C128.226 192.093 127.626 192.2 126.919 192.2C125.826 192.2 124.886 191.927 124.099 191.38C123.326 190.82 122.732 190.053 122.319 189.08C121.906 188.093 121.699 186.973 121.699 185.72V184.46C121.699 183.247 121.906 182.173 122.319 181.24C122.732 180.293 123.339 179.553 124.139 179.02C124.939 178.473 125.919 178.2 127.079 178.2C128.172 178.2 129.072 178.4 129.779 178.8C130.499 179.187 131.026 179.707 131.359 180.36C131.692 181 131.819 181.7 131.739 182.46L129.399 183.04C129.546 181.707 129.399 180.687 128.959 179.98C128.519 179.26 127.866 178.9 126.999 178.9C125.172 178.9 124.259 180.52 124.259 183.76V186.62C124.259 189.873 125.226 191.5 127.159 191.5C127.586 191.5 128.012 191.413 128.439 191.24C128.879 191.067 129.246 190.813 129.539 190.48V187.52C129.539 187.067 129.519 186.793 129.479 186.7C129.439 186.607 129.312 186.553 129.099 186.54L127.599 186.4ZM134.501 178.96V178.4H139.981V178.96L138.881 179.1C138.667 179.127 138.541 179.187 138.501 179.28C138.461 179.36 138.441 179.627 138.441 180.08V190.32C138.441 190.773 138.461 191.047 138.501 191.14C138.541 191.22 138.667 191.273 138.881 191.3L139.981 191.44V192H134.501V191.44L135.601 191.3C135.814 191.273 135.941 191.22 135.981 191.14C136.021 191.047 136.041 190.773 136.041 190.32V180.08C136.041 179.627 136.021 179.36 135.981 179.28C135.941 179.187 135.814 179.127 135.601 179.1L134.501 178.96ZM146.348 191.5C147.148 191.5 147.808 191.313 148.328 190.94C148.861 190.553 149.128 189.953 149.128 189.14C149.128 188.54 148.948 188.04 148.588 187.64C148.241 187.24 147.614 186.907 146.708 186.64L144.848 186.08C143.914 185.8 143.194 185.32 142.688 184.64C142.194 183.947 141.948 183.087 141.948 182.06C141.948 181.38 142.101 180.747 142.408 180.16C142.728 179.573 143.208 179.1 143.848 178.74C144.501 178.38 145.321 178.2 146.308 178.2C147.388 178.2 148.261 178.4 148.928 178.8C149.594 179.187 150.061 179.693 150.328 180.32C150.594 180.947 150.661 181.62 150.528 182.34L148.228 182.76C148.441 181.52 148.348 180.567 147.948 179.9C147.561 179.233 146.928 178.9 146.048 178.9C145.368 178.9 144.821 179.1 144.408 179.5C144.008 179.9 143.808 180.473 143.808 181.22C143.808 181.833 143.981 182.373 144.328 182.84C144.688 183.307 145.274 183.667 146.088 183.92L147.948 184.48C148.961 184.773 149.721 185.22 150.228 185.82C150.734 186.407 150.988 187.227 150.988 188.28C150.988 189.027 150.814 189.7 150.468 190.3C150.134 190.887 149.621 191.353 148.928 191.7C148.248 192.033 147.394 192.2 146.368 192.2C145.621 192.2 144.914 192.093 144.248 191.88C143.581 191.653 143.021 191.287 142.568 190.78C142.128 190.273 141.848 189.587 141.728 188.72L143.068 188.24C143.134 189.093 143.321 189.76 143.628 190.24C143.948 190.707 144.341 191.033 144.808 191.22C145.288 191.407 145.801 191.5 146.348 191.5ZM152.318 178.4H163.318V181.84H162.758L162.118 179.62C162.078 179.447 162.031 179.327 161.978 179.26C161.938 179.18 161.851 179.133 161.718 179.12C161.585 179.107 161.358 179.1 161.038 179.1H159.018V190.32C159.018 190.773 159.038 191.047 159.078 191.14C159.118 191.22 159.245 191.273 159.458 191.3L160.558 191.44V192H155.078V191.44L156.178 191.3C156.391 191.273 156.518 191.22 156.558 191.14C156.598 191.047 156.618 190.773 156.618 190.32V179.1H154.598C154.291 179.1 154.065 179.107 153.918 179.12C153.785 179.133 153.698 179.18 153.658 179.26C153.618 179.327 153.571 179.447 153.518 179.62L152.878 181.84H152.318V178.4ZM171.775 191.44V192H167.915V191.44L169.015 191.3C169.162 191.273 169.268 191.247 169.335 191.22C169.402 191.18 169.462 191.093 169.515 190.96C169.568 190.827 169.642 190.613 169.735 190.32L173.555 178.4H175.275L179.115 190.32C179.208 190.613 179.282 190.827 179.335 190.96C179.388 191.093 179.448 191.18 179.515 191.22C179.595 191.247 179.702 191.273 179.835 191.3L180.935 191.44V192H175.415V191.44L176.515 191.3C176.728 191.273 176.842 191.22 176.855 191.14C176.882 191.047 176.822 190.773 176.675 190.32L175.915 187.84H171.295L170.515 190.32C170.382 190.773 170.322 191.047 170.335 191.14C170.348 191.22 170.462 191.273 170.675 191.3L171.775 191.44ZM171.535 187.14H175.695L173.635 180.5L171.535 187.14ZM190.609 188.56H191.169V192H181.669V191.44L182.769 191.3C182.982 191.273 183.109 191.22 183.149 191.14C183.189 191.047 183.209 190.773 183.209 190.32V180.08C183.209 179.627 183.189 179.36 183.149 179.28C183.109 179.187 182.982 179.127 182.769 179.1L181.669 178.96V178.4H187.149V178.96L186.049 179.1C185.835 179.127 185.709 179.187 185.669 179.28C185.629 179.36 185.609 179.627 185.609 180.08V191.3H188.889C189.209 191.3 189.435 191.293 189.569 191.28C189.702 191.253 189.789 191.207 189.829 191.14C189.882 191.06 189.929 190.94 189.969 190.78L190.609 188.56ZM201.253 188.56H201.813V192H192.313V191.44L193.413 191.3C193.626 191.273 193.753 191.22 193.793 191.14C193.833 191.047 193.853 190.773 193.853 190.32V180.08C193.853 179.627 193.833 179.36 193.793 179.28C193.753 179.187 193.626 179.127 193.413 179.1L192.313 178.96V178.4H197.793V178.96L196.693 179.1C196.48 179.127 196.353 179.187 196.313 179.28C196.273 179.36 196.253 179.627 196.253 180.08V191.3H199.533C199.853 191.3 200.08 191.293 200.213 191.28C200.346 191.253 200.433 191.207 200.473 191.14C200.526 191.06 200.573 190.94 200.613 190.78L201.253 188.56ZM207.43 178.96V178.4H213.33C215.037 178.4 216.344 178.9 217.25 179.9C218.17 180.9 218.63 182.453 218.63 184.56V185.82C218.63 187.927 218.17 189.487 217.25 190.5C216.344 191.5 215.037 192 213.33 192H207.43V191.44L208.53 191.3C208.744 191.273 208.87 191.22 208.91 191.14C208.95 191.047 208.97 190.773 208.97 190.32V180.08C208.97 179.627 208.95 179.36 208.91 179.28C208.87 179.187 208.744 179.127 208.53 179.1L207.43 178.96ZM213.23 179.1H211.37V191.3H213.23C213.91 191.3 214.457 191.187 214.87 190.96C215.284 190.72 215.584 190.28 215.77 189.64C215.97 188.987 216.07 188.047 216.07 186.82V183.56C216.07 182.333 215.97 181.4 215.77 180.76C215.584 180.12 215.284 179.687 214.87 179.46C214.457 179.22 213.91 179.1 213.23 179.1ZM223.084 191.44V192H219.224V191.44L220.324 191.3C220.47 191.273 220.577 191.247 220.644 191.22C220.71 191.18 220.77 191.093 220.824 190.96C220.877 190.827 220.95 190.613 221.044 190.32L224.864 178.4H226.584L230.424 190.32C230.517 190.613 230.59 190.827 230.644 190.96C230.697 191.093 230.757 191.18 230.824 191.22C230.904 191.247 231.01 191.273 231.144 191.3L232.244 191.44V192H226.724V191.44L227.824 191.3C228.037 191.273 228.15 191.22 228.164 191.14C228.19 191.047 228.13 190.773 227.984 190.32L227.224 187.84H222.604L221.824 190.32C221.69 190.773 221.63 191.047 221.644 191.14C221.657 191.22 221.77 191.273 221.984 191.3L223.084 191.44ZM222.844 187.14H227.004L224.944 180.5L222.844 187.14ZM239.631 191.44V192H234.151V191.44L235.251 191.3C235.464 191.273 235.591 191.22 235.631 191.14C235.671 191.047 235.691 190.773 235.691 190.32V186.18L232.511 180.08C232.351 179.773 232.231 179.56 232.151 179.44C232.071 179.307 231.991 179.22 231.911 179.18C231.844 179.14 231.744 179.113 231.611 179.1L230.511 178.96V178.4H236.211V178.96L235.111 179.1C234.911 179.127 234.811 179.187 234.811 179.28C234.811 179.36 234.918 179.627 235.131 180.08L237.711 185.24L240.391 180.08C240.618 179.64 240.724 179.373 240.711 179.28C240.711 179.187 240.611 179.127 240.411 179.1L239.311 178.96V178.4H243.211V178.96L242.111 179.1C241.978 179.113 241.871 179.14 241.791 179.18C241.724 179.22 241.651 179.307 241.571 179.44C241.504 179.56 241.391 179.773 241.231 180.08L238.091 186.14V190.32C238.091 190.773 238.111 191.047 238.151 191.14C238.191 191.22 238.318 191.273 238.531 191.3L239.631 191.44Z" fill="#3D3741"/>
<defs>
<filter id="filter0_b_20_15" x="27" y="31" width="236" height="226" filterUnits="userSpaceOnUse" color-interpolation-filters="sRGB">
<feFlood flood-opacity="0" result="BackgroundImageFix"/>
<feGaussianBlur in="BackgroundImageFix" stdDeviation="2"/>
<feComposite in2="SourceAlpha" operator="in" result="effect1_backgroundBlur_20_15"/>
<feBlend mode="normal" in="SourceGraphic" in2="effect1_backgroundBlur_20_15" result="shape"/>
</filter>
<linearGradient id="paint0_linear_20_15" x1="192.5" y1="67.2679" x2="51.1623" y2="99.48" gradientUnits="userSpaceOnUse">
<stop stop-color="#C9A268"/>
<stop offset="0.867799" stop-color="#635033" stop-opacity="0.8"/>
<stop offset="0.904788" stop-color="#91754B"/>
</linearGradient>
</defs>
</svg>
